<?xml version="1.0" encoding="UTF-8"?>
<svg width="24" height="24" viewBox="0 0 24 24" fill="none" xmlns="http://www.w3.org/2000/svg">
  <path d="M22 7H15V5H22V7ZM23 14.4C22.4 16.4 20.6 18 17.8 18C14.4 18 11.9 15.4 11.9 11.8C11.9 8.2 14.3 5.5 17.8 5.5C20.5 5.5 22.4 7 23 9H20.9C20.5 8 19.4 7.3 17.9 7.3C15.5 7.3 14.1 9.1 14.1 11.8C14.1 14.5 15.6 16.3 17.9 16.3C19.8 16.3 20.8 15.2 21.1 14.4H23Z" fill="#FFFFFF"/>
  <path d="M6.2 10.2C7.1 10.2 8.4 10.5 8.9 11.5H11.2C10.6 9 8.9 8 6.3 8C3.4 8 1 10.2 1 14.1C1 18 3.3 20 6.3 20C8.7 20 10.4 18.8 11.1 17.4C11.5 16.5 11.7 15.4 11.7 13.9H6.3C6.3 15.4 6.3 16.7 7.9 16.7C9.1 16.7 9.3 16 9.4 15.2H11.7C11.6 16.5 10.8 18 7.8 18C4.9 18 3.6 16.1 3.6 14C3.6 10.9 5.2 10.2 6.2 10.2ZM6.3 12.2H9.1C9 11.3 8.4 10.9 7.7 10.9C6.9 10.9 6.4 11.3 6.3 12.2Z" fill="#FFFFFF"/>
</svg> 