<?xml version="1.0" encoding="UTF-8"?>
<svg width="504" height="504" viewBox="0 0 504 504" fill="none" xmlns="http://www.w3.org/2000/svg">
  <path d="M251.921 0.159302C183.503 0.159302 174.924 0.449302 148.054 1.67530C121.24 2.89930 102.927 7.14330 86.903 13.2833C70.337 19.5893 56.288 28.0893 42.282 42.0953C28.276 56.1013 19.776 70.1503 13.47 86.7163C7.33 102.74 3.086 121.053 1.862 147.867C0.636 174.737 0.346 183.316 0.346 251.734C0.346 320.152 0.636 328.731 1.862 355.601C3.086 382.415 7.33 400.728 13.47 416.752C19.776 433.318 28.276 447.367 42.282 461.373C56.288 475.379 70.337 483.879 86.903 490.185C102.927 496.325 121.24 500.569 148.054 501.793C174.924 503.019 183.503 503.309 251.921 503.309C320.339 503.309 328.918 503.019 355.788 501.793C382.602 500.569 400.915 496.325 416.939 490.185C433.505 483.879 447.554 475.379 461.56 461.373C475.566 447.367 484.066 433.318 490.372 416.752C496.512 400.728 500.756 382.415 501.98 355.601C503.206 328.731 503.496 320.152 503.496 251.734C503.496 183.316 503.206 174.737 501.98 147.867C500.756 121.053 496.512 102.74 490.372 86.7163C484.066 70.1503 475.566 56.1013 461.56 42.0953C447.554 28.0893 433.505 19.5893 416.939 13.2833C400.915 7.14330 382.602 2.89930 355.788 1.67530C328.918 0.449302 320.339 0.159302 251.921 0.159302ZM251.921 45.5173C319.186 45.5173 327.154 45.7773 353.718 46.9933C378.28 48.1133 391.619 52.1943 400.496 55.5553C412.255 60.0113 420.647 65.3513 429.462 74.1663C438.277 82.9813 443.617 91.3733 448.073 103.132C451.434 112.009 455.515 125.348 456.635 149.91C457.851 176.474 458.111 184.442 458.111 251.707C458.111 318.972 457.851 326.94 456.635 353.504C455.515 378.066 451.434 391.405 448.073 400.282C443.617 412.041 438.277 420.433 429.462 429.248C420.647 438.063 412.255 443.403 400.496 447.859C391.619 451.22 378.28 455.301 353.718 456.421C327.157 457.637 319.189 457.897 251.921 457.897C184.65 457.897 176.685 457.637 150.124 456.421C125.562 455.301 112.223 451.22 103.346 447.859C91.587 443.403 83.195 438.063 74.38 429.248C65.565 420.433 60.225 412.041 55.769 400.282C52.408 391.405 48.327 378.066 47.207 353.504C45.991 326.94 45.731 318.972 45.731 251.707C45.731 184.442 45.991 176.474 47.207 149.91C48.327 125.348 52.408 112.009 55.769 103.132C60.225 91.3733 65.565 82.9813 74.38 74.1663C83.195 65.3513 91.587 60.0113 103.346 55.5553C112.223 52.1943 125.562 48.1133 150.124 46.9933C176.688 45.7773 184.656 45.5173 251.921 45.5173Z" fill="#282828"/>
  <path d="M251.921 336.053C205.543 336.053 167.602 298.112 167.602 251.734C167.602 205.356 205.543 167.415 251.921 167.415C298.299 167.415 336.24 205.356 336.24 251.734C336.24 298.112 298.299 336.053 251.921 336.053ZM251.921 122.057C180.474 122.057 122.244 180.287 122.244 251.734C122.244 323.181 180.474 381.411 251.921 381.411C323.368 381.411 381.598 323.181 381.598 251.734C381.598 180.287 323.368 122.057 251.921 122.057Z" fill="#E4405F"/>
  <path d="M416.627 117.604C416.627 134.3 403.092 147.834 386.396 147.834C369.7 147.834 356.166 134.3 356.166 117.604C356.166 100.908 369.7 87.374 386.396 87.374C403.092 87.374 416.627 100.908 416.627 117.604Z" fill="#E4405F"/>
</svg> 