<?xml version="1.0" encoding="UTF-8"?>
<svg width="496" height="496" viewBox="0 0 496 496" fill="none" xmlns="http://www.w3.org/2000/svg">
  <path fill-rule="evenodd" clip-rule="evenodd" d="M248 496C384.967 496 496 384.967 496 248C496 111.033 384.967 0 248 0C111.033 0 0 111.033 0 248C0 384.967 111.033 496 248 496ZM363.952 151.856C368.977 134.911 352.472 121.276 337.947 129.451L115.947 249.451C104.922 255.451 104.922 271.451 115.947 277.451L185.947 313.451L273.947 249.451L209.947 313.451L209.947 385.451C220.972 385.451 225.947 379.451 231.947 373.451L263.947 341.451L337.947 385.451C352.472 393.626 368.977 379.991 363.952 363.046L315.952 151.856C313.452 143.356 313.452 160.356 315.952 151.856L363.952 151.856Z" fill="#282828"/>
</svg> 