<?xml version="1.0" encoding="UTF-8"?>
<svg width="159" height="110" viewBox="0 0 159 110" fill="none" xmlns="http://www.w3.org/2000/svg">
  <path d="M155.5 17.1C153.6 10.4 148.3 5.1 141.6 3.2C129.2 0 79.5 0 79.5 0C79.5 0 29.8 0 17.4 3.2C10.7 5.1 5.4 10.4 3.5 17.1C0.3 29.5 0.3 55 0.3 55C0.3 55 0.3 80.5 3.5 92.9C5.4 99.6 10.7 104.9 17.4 106.8C29.8 110 79.5 110 79.5 110C79.5 110 129.2 110 141.6 106.8C148.3 104.9 153.6 99.6 155.5 92.9C158.7 80.5 158.7 55 158.7 55C158.7 55 158.7 29.5 155.5 17.1Z" fill="#FF0000"/>
  <path d="M63.3 78.4L104.5 55L63.3 31.6V78.4Z" fill="white"/>
</svg> 